<svg width="200" height="150" viewBox="0 0 200 150" fill="none" xmlns="http://www.w3.org/2000/svg">
<g clip-path="url(#clip0)">
<path d="M-3.36 27.2H57.12C67.2 27.2 74.496 29.504 79.008 34.112C83.616 38.624 85.92 45.92 85.92 56V70.4C85.92 80.48 83.616 87.824 79.008 92.432C74.496 96.944 67.2 99.2 57.12 99.2H22.56V128H-3.36V27.2ZM60 56C60 50.24 57.12 47.36 51.36 47.36H22.56V79.04H51.36C57.12 79.04 60 76.16 60 70.4V56Z" fill="#747474"/>
<path d="M109.64 27.2H170.12C180.2 27.2 187.496 29.504 192.008 34.112C196.616 38.624 198.92 45.92 198.92 56V70.4C198.92 80.48 196.616 87.824 192.008 92.432C187.496 96.944 180.2 99.2 170.12 99.2H135.56V128H109.64V27.2ZM173 56C173 50.24 170.12 47.36 164.36 47.36H135.56V79.04H164.36C170.12 79.04 173 76.16 173 70.4V56Z" fill="#747474"/>
<path d="M110.6 128H84.68V47.36H54.44V27.2H140.84V47.36H110.6V128Z" fill="#121212"/>
</g>
<defs>
<clipPath id="clip0">
<rect width="200" height="150" fill="white"/>
</clipPath>
</defs>
</svg>
